<?xml version="1.0" standalone="no"?>
<!DOCTYPE svg PUBLIC "-//W3C//DTD SVG 20010904//EN"
 "http://www.w3.org/TR/2001/REC-SVG-20010904/DTD/svg10.dtd">
<svg version="1.0" xmlns="http://www.w3.org/2000/svg"
 width="300.000000pt" height="248.000000pt" viewBox="0 0 300.000000 248.000000"
 preserveAspectRatio="xMidYMid meet">
<metadata>
Created by potrace 1.10, written by Peter Selinger 2001-2011
</metadata>
<g transform="translate(0.000000,248.000000) scale(0.050000,-0.050000)"
fill="#000000" stroke="none">
<path d="M1470 4579 c-391 -54 -725 -128 -774 -173 -52 -47 -56 -3593 -4
-3622 20 -11 96 -4 205 19 1072 224 1718 122 1935 -307 85 -167 217 -177 281
-21 149 361 756 527 1487 408 200 -33 582 -103 623 -115 100 -29 97 -80 97
1833 l0 1778 -45 30 c-25 16 -108 44 -185 62 -1064 249 -1815 122 -2059 -349
-40 -78 -37 -79 -111 29 -255 370 -767 521 -1450 428z m3340 -208 c154 -29
300 -58 325 -64 l45 -11 0 -1678 c0 -923 -7 -1678 -15 -1678 -8 0 -71 14 -139
30 -781 184 -1531 108 -1851 -188 l-116 -107 5 1587 6 1588 48 118 c173 431
781 575 1692 403z"/>
</g>
</svg>
